<svg width="42" height="42" viewBox="0 0 42 42" fill="none" xmlns="http://www.w3.org/2000/svg">
<rect width="42" height="42" rx="10" fill="#01A274" fill-opacity="0.1"/>
<path fill-rule="evenodd" clip-rule="evenodd" d="M21 10.2084C20.2326 10.2084 19.4777 10.4553 17.5941 11.1001L16.9258 11.3288C15.1611 11.9329 13.8741 12.3738 12.9705 12.7408C12.5195 12.9241 12.1927 13.0776 11.9633 13.2108C11.8501 13.2766 11.7721 13.3309 11.7199 13.3732C11.6758 13.4091 11.6589 13.4295 11.6565 13.4324C11.6543 13.4361 11.6397 13.4603 11.6193 13.5177C11.596 13.5831 11.5702 13.677 11.545 13.8076C11.494 14.072 11.4554 14.4352 11.4288 14.9251C11.3753 15.9065 11.375 17.2764 11.375 19.1528V20.99C11.375 27.0276 15.8899 29.9991 18.8986 31.3134C19.332 31.5027 19.5823 31.6098 19.8609 31.6812C20.127 31.7493 20.4517 31.7917 21 31.7917C21.5483 31.7917 21.873 31.7493 22.1391 31.6812C22.4177 31.6098 22.668 31.5027 23.1014 31.3134C26.1101 29.9991 30.625 27.0276 30.625 20.99V19.1528C30.625 17.2764 30.6247 15.9065 30.5712 14.9251C30.5446 14.4352 30.506 14.072 30.455 13.8076C30.4298 13.677 30.404 13.5831 30.3807 13.5177C30.3602 13.4603 30.3457 13.4361 30.3435 13.4324C30.3411 13.4294 30.3242 13.4091 30.28 13.3732C30.2279 13.3309 30.1499 13.2766 30.0367 13.2108C29.8073 13.0776 29.4805 12.9241 29.0295 12.7408C28.1259 12.3738 26.8389 11.9329 25.0742 11.3288L24.406 11.1001C22.5223 10.4553 21.7674 10.2084 21 10.2084ZM17.1773 9.39301C18.8619 8.81605 19.9062 8.45837 21 8.45837C22.0938 8.45837 23.1381 8.81605 24.8227 9.39301C24.8722 9.40994 24.9221 9.42706 24.9727 9.44437L25.6714 9.68353C27.3996 10.2751 28.7334 10.7317 29.6881 11.1195C30.1691 11.3149 30.5826 11.5042 30.9155 11.6975C31.2359 11.8836 31.5574 12.1157 31.7758 12.4268C31.9916 12.7344 32.1032 13.1125 32.1734 13.4765C32.2463 13.8549 32.2903 14.3088 32.3186 14.83C32.375 15.8648 32.375 17.2826 32.375 19.1215V20.99C32.375 28.1079 26.999 31.5205 23.8019 32.917L23.7703 32.9308C23.3739 33.1041 23.0013 33.2669 22.5731 33.3765C22.1211 33.4922 21.6408 33.5417 21 33.5417C20.3592 33.5417 19.8789 33.4922 19.4269 33.3765C18.9987 33.2669 18.6261 33.1041 18.2297 32.9308L18.1981 32.917C15.001 31.5205 9.625 28.1079 9.625 20.99V19.1216C9.625 17.2826 9.625 15.8649 9.68135 14.83C9.70973 14.3088 9.7537 13.8549 9.82662 13.4765C9.89676 13.1125 10.0084 12.7344 10.2242 12.4268C10.4426 12.1157 10.7641 11.8836 11.0845 11.6975C11.4174 11.5042 11.8309 11.3149 12.3119 11.1195C13.2666 10.7317 14.6004 10.2751 16.3286 9.68353L17.0273 9.44437C17.0779 9.42706 17.1278 9.40994 17.1773 9.39301ZM21 16.2173C20.8612 16.4232 20.6903 16.7267 20.4358 17.1833L20.2828 17.4577C20.2715 17.478 20.2598 17.4993 20.2476 17.5213C20.121 17.7515 19.9489 18.0642 19.6647 18.2799C19.3753 18.4996 19.0263 18.5765 18.7768 18.6314C18.7531 18.6366 18.7303 18.6416 18.7085 18.6466L18.4115 18.7137C17.8688 18.8365 17.5306 18.9151 17.3034 18.9946C17.4439 19.2057 17.6798 19.4846 18.0624 19.932L18.2648 20.1687C18.2797 20.1861 18.2952 20.2041 18.3113 20.2227C18.4836 20.4222 18.7129 20.6876 18.8189 21.0285C18.9238 21.3658 18.8883 21.7147 18.8612 21.9815C18.8586 22.0064 18.8562 22.0306 18.8539 22.054L18.8233 22.3698C18.7686 22.9341 18.7349 23.2991 18.7359 23.5573C18.9601 23.4778 19.2673 23.3383 19.736 23.1225L20.0141 22.9944C20.0345 22.985 20.056 22.975 20.0783 22.9645C20.3091 22.8565 20.6365 22.7033 21 22.7033C21.3635 22.7033 21.6909 22.8565 21.9217 22.9645C21.944 22.975 21.9655 22.985 21.9859 22.9944L22.264 23.1225C22.7327 23.3383 23.0399 23.4778 23.2641 23.5573C23.2651 23.2991 23.2314 22.9341 23.1767 22.3698L23.1461 22.054C23.1438 22.0306 23.1414 22.0064 23.1388 21.9815C23.1117 21.7147 23.0762 21.3658 23.1811 21.0285C23.2871 20.6876 23.5164 20.4222 23.6887 20.2227C23.7048 20.2041 23.7203 20.1861 23.7352 20.1687L23.9376 19.932C24.3202 19.4846 24.5561 19.2057 24.6966 18.9946C24.4694 18.9151 24.1312 18.8365 23.5885 18.7137L23.2915 18.6466C23.2697 18.6416 23.2469 18.6366 23.2232 18.6314C22.9737 18.5765 22.6247 18.4996 22.3353 18.2799C22.0511 18.0642 21.879 17.7515 21.7524 17.5214C21.7402 17.4993 21.7285 17.478 21.7172 17.4577L21.5642 17.1833C21.3097 16.7267 21.1388 16.4232 21 16.2173ZM23.5118 23.6253C23.5131 23.6253 23.5138 23.6254 23.5138 23.6254ZM18.4862 23.6254C18.4862 23.6254 18.4869 23.6253 18.4882 23.6253ZM19.697 15.0324C19.9486 14.7038 20.3594 14.2917 21 14.2917C21.6405 14.2917 22.0514 14.7038 22.303 15.0324C22.5453 15.3487 22.7933 15.7938 23.063 16.2778C23.0729 16.2956 23.0828 16.3134 23.0928 16.3312L23.2457 16.6056C23.2887 16.6826 23.3219 16.7421 23.3514 16.7932C23.3712 16.8275 23.3867 16.8534 23.3992 16.8734C23.4189 16.8788 23.4437 16.8852 23.4755 16.893C23.5303 16.9063 23.5941 16.9208 23.6777 16.9397L23.9746 17.0069C23.9949 17.0115 24.0151 17.016 24.0352 17.0206C24.5566 17.1385 25.0433 17.2485 25.4108 17.3933C25.8089 17.5502 26.29 17.833 26.4754 18.4292C26.6578 19.0157 26.4332 19.5221 26.2064 19.8825C25.9933 20.2211 25.6642 20.6057 25.3068 21.0235C25.2938 21.0388 25.2807 21.054 25.2676 21.0694L25.0652 21.3061C25.0083 21.3726 24.9645 21.4239 24.9273 21.4688C24.8967 21.5056 24.8756 21.5323 24.8605 21.5523C24.8625 21.6173 24.8708 21.7088 24.8879 21.8852L24.9243 22.2604C24.9785 22.8196 25.0281 23.3299 25.0102 23.7318C24.9916 24.1494 24.893 24.7083 24.3967 25.0851C23.886 25.4727 23.3154 25.3971 22.9108 25.2812C22.532 25.1727 22.0769 24.963 21.589 24.7383C21.5701 24.7296 21.5511 24.7208 21.5321 24.7121L21.254 24.584C21.1758 24.548 21.116 24.5205 21.064 24.4976C21.0384 24.4863 21.0174 24.4773 21 24.4702C20.9826 24.4773 20.9616 24.4863 20.936 24.4976C20.884 24.5205 20.8242 24.548 20.746 24.584L20.4679 24.7121C20.4489 24.7208 20.4299 24.7296 20.411 24.7383C19.9231 24.963 19.468 25.1727 19.0892 25.2812C18.6846 25.3971 18.114 25.4727 17.6033 25.0851C17.107 24.7083 17.0084 24.1494 16.9898 23.7318C16.9719 23.3299 17.0215 22.8196 17.0757 22.2605C17.0776 22.2407 17.0795 22.2209 17.0815 22.201L17.1121 21.8852C17.1292 21.7088 17.1375 21.6173 17.1395 21.5523C17.1244 21.5323 17.1033 21.5056 17.0727 21.4688C17.0355 21.4239 16.9917 21.3726 16.9348 21.3061L16.7324 21.0694C16.7193 21.054 16.7062 21.0387 16.6932 21.0235C16.3358 20.6057 16.0067 20.2211 15.7936 19.8825C15.5668 19.5221 15.3422 19.0157 15.5246 18.4292C15.71 17.833 16.1911 17.5502 16.5892 17.3933C16.9567 17.2485 17.4434 17.1385 17.9648 17.0206C17.9849 17.016 18.0051 17.0115 18.0254 17.0069L18.3223 16.9397C18.4059 16.9208 18.4697 16.9063 18.5245 16.893C18.5563 16.8852 18.5811 16.8788 18.6008 16.8734C18.6133 16.8534 18.6288 16.8275 18.6486 16.7932C18.6781 16.7421 18.7113 16.6826 18.7543 16.6056L18.9072 16.3312C18.9172 16.3134 18.9271 16.2956 18.937 16.2778C19.2067 15.7938 19.4547 15.3487 19.697 15.0324Z" fill="#01A274"/>
</svg>
