<svg width="42" height="42" viewBox="0 0 42 42" fill="none" xmlns="http://www.w3.org/2000/svg">
<rect width="42" height="42" rx="10" fill="#01A274" fill-opacity="0.1"/>
<path fill-rule="evenodd" clip-rule="evenodd" d="M21 8.45837C21.2555 8.45837 21.4982 8.56999 21.6644 8.76393L25.1644 12.8473C25.4789 13.2142 25.4364 13.7666 25.0695 14.0811C24.7026 14.3956 24.1502 14.3531 23.8357 13.9861L21.875 11.6987L21.875 24.5C21.875 24.9833 21.4833 25.375 21 25.375C20.5168 25.375 20.125 24.9833 20.125 24.5L20.125 11.6987L18.1644 13.9861C17.8499 14.3531 17.2975 14.3956 16.9306 14.0811C16.5637 13.7666 16.5212 13.2142 16.8357 12.8473L20.3357 8.76393C20.5019 8.56999 20.7446 8.45837 21 8.45837ZM15.1618 16.6273C15.6451 16.6246 16.039 17.0142 16.0417 17.4974C16.0444 17.9807 15.6548 18.3746 15.1716 18.3773C13.8958 18.3844 12.9916 18.4175 12.3053 18.5436C11.644 18.6651 11.2612 18.8601 10.9772 19.1441C10.6543 19.467 10.4438 19.9204 10.3287 20.7764C10.2102 21.6577 10.2084 22.8256 10.2084 24.5003V25.667C10.2084 27.3416 10.2102 28.5096 10.3287 29.3908C10.4438 30.2469 10.6543 30.7002 10.9772 31.0231C11.3001 31.346 11.7534 31.5565 12.6095 31.6716C13.4908 31.7901 14.6587 31.792 16.3334 31.792H25.6667C27.3414 31.792 28.5093 31.7901 29.3906 31.6716C30.2466 31.5565 30.7 31.346 31.0229 31.0231C31.3458 30.7002 31.5563 30.2469 31.6714 29.3908C31.7899 28.5096 31.7917 27.3416 31.7917 25.667V24.5003C31.7917 22.8256 31.7899 21.6577 31.6714 20.7764C31.5563 19.9204 31.3458 19.467 31.0229 19.1441C30.7388 18.8601 30.3561 18.6651 29.6948 18.5436C29.0085 18.4175 28.1043 18.3844 26.8285 18.3773C26.3453 18.3746 25.9557 17.9807 25.9584 17.4974C25.9611 17.0142 26.355 16.6246 26.8382 16.6273C28.1 16.6344 29.1516 16.6645 30.011 16.8224C30.8953 16.9848 31.6479 17.2943 32.2603 17.9067C32.9625 18.6089 33.2646 19.4931 33.4058 20.5432C33.5418 21.5547 33.5417 22.8408 33.5417 24.4363V25.731C33.5417 27.3265 33.5418 28.6125 33.4058 29.624C33.2646 30.6741 32.9625 31.5583 32.2603 32.2606C31.5581 32.9628 30.6739 33.2648 29.6237 33.406C28.6123 33.542 27.3262 33.542 25.7307 33.542H16.2694C14.6738 33.542 13.3878 33.542 12.3763 33.406C11.3262 33.2648 10.442 32.9628 9.73978 32.2606C9.03755 31.5583 8.7355 30.6741 8.59432 29.624C8.45833 28.6125 8.45835 27.3265 8.45837 25.731V24.4363C8.45835 22.8407 8.45833 21.5547 8.59432 20.5432C8.7355 19.4931 9.03755 18.6089 9.73978 17.9067C10.3522 17.2943 11.1048 16.9848 11.9891 16.8224C12.8484 16.6645 13.9001 16.6344 15.1618 16.6273Z" fill="#01A274"/>
</svg>
