<svg width="50" height="50" viewBox="0 0 50 50" fill="none" xmlns="http://www.w3.org/2000/svg">
<rect width="50" height="50" rx="12" fill="white" fill-opacity="0.2"/>
<rect x="0.5" y="0.5" width="49" height="49" rx="11.5" stroke="white" stroke-opacity="0.2"/>
<g clip-path="url(#clip0_38_5756)">
<path fill-rule="evenodd" clip-rule="evenodd" d="M25 14.7917C25.4832 14.7917 25.875 15.1834 25.875 15.6667L25.875 34.3333C25.875 34.8166 25.4832 35.2083 25 35.2083C24.5167 35.2083 24.125 34.8166 24.125 34.3333L24.125 15.6667C24.125 15.1834 24.5167 14.7917 25 14.7917ZM20.3333 18.2917C20.8165 18.2917 21.2083 18.6834 21.2083 19.1667V30.8333C21.2083 31.3166 20.8165 31.7083 20.3333 31.7083C19.85 31.7083 19.4583 31.3166 19.4583 30.8333V19.1667C19.4583 18.6834 19.85 18.2917 20.3333 18.2917ZM29.6666 18.2917C30.1499 18.2917 30.5416 18.6834 30.5416 19.1667V30.8333C30.5416 31.3166 30.1499 31.7083 29.6666 31.7083C29.1834 31.7083 28.7916 31.3166 28.7916 30.8333V19.1667C28.7916 18.6834 29.1834 18.2917 29.6666 18.2917ZM15.6666 22.9583C16.1499 22.9583 16.5416 23.3501 16.5416 23.8333L16.5416 26.1667C16.5416 26.6499 16.1499 27.0417 15.6666 27.0417C15.1834 27.0417 14.7916 26.6499 14.7916 26.1667L14.7916 23.8333C14.7916 23.3501 15.1834 22.9583 15.6666 22.9583ZM34.3333 22.9583C34.8165 22.9583 35.2083 23.3501 35.2083 23.8333V26.1667C35.2083 26.6499 34.8165 27.0417 34.3333 27.0417C33.85 27.0417 33.4583 26.6499 33.4583 26.1667V23.8333C33.4583 23.3501 33.85 22.9583 34.3333 22.9583Z" fill="white"/>
</g>
<defs>
<clipPath id="clip0_38_5756">
<rect width="28" height="28" fill="white" transform="translate(11 11)"/>
</clipPath>
</defs>
</svg>
