<svg width="42" height="42" viewBox="0 0 42 42" fill="none" xmlns="http://www.w3.org/2000/svg">
<rect width="42" height="42" rx="10" fill="#01A274" fill-opacity="0.1"/>
<path fill-rule="evenodd" clip-rule="evenodd" d="M20.9341 8.45837H21.0658C23.2098 8.45836 24.9081 8.45834 26.2372 8.63703C27.605 8.82093 28.7121 9.2084 29.5852 10.0815C30.4583 10.9546 30.8457 12.0617 31.0296 13.4295C31.2083 14.7586 31.2083 16.4568 31.2083 18.6009V23.3992C31.2083 25.5432 31.2083 27.2415 31.0296 28.5706C30.8457 29.9384 30.4583 31.0455 29.5852 31.9186C28.7121 32.7917 27.605 33.1791 26.2372 33.363C24.9081 33.5417 23.2098 33.5417 21.0658 33.5417H20.9341C18.7901 33.5417 17.0919 33.5417 15.7628 33.363C14.3949 33.1791 13.2878 32.7917 12.4147 31.9186C11.5417 31.0455 11.1542 29.9384 10.9703 28.5706C10.7916 27.2415 10.7916 25.5432 10.7916 23.3992V18.6009C10.7916 16.4568 10.7916 14.7586 10.9703 13.4295C11.1542 12.0617 11.5417 10.9546 12.4147 10.0815C13.2878 9.2084 14.3949 8.82093 15.7628 8.63703C17.0918 8.45834 18.7901 8.45836 20.9341 8.45837ZM15.9959 10.3714C14.8222 10.5292 14.1459 10.8252 13.6522 11.3189C13.1584 11.8127 12.8625 12.4889 12.7047 13.6627C12.5435 14.8616 12.5416 16.4421 12.5416 18.6667V23.3334C12.5416 25.558 12.5435 27.1384 12.7047 28.3374C12.8625 29.5112 13.1584 30.1874 13.6522 30.6812C14.1459 31.1749 14.8222 31.4708 15.9959 31.6287C17.1949 31.7898 18.7753 31.7917 21 31.7917C23.2246 31.7917 24.805 31.7898 26.004 31.6287C27.1777 31.4708 27.854 31.1749 28.3477 30.6812C28.8415 30.1874 29.1374 29.5112 29.2952 28.3374C29.4564 27.1384 29.4583 25.558 29.4583 23.3334V18.6667C29.4583 16.4421 29.4564 14.8616 29.2952 13.6627C29.1374 12.4889 28.8415 11.8127 28.3477 11.3189C27.854 10.8252 27.1777 10.5292 26.004 10.3714C24.805 10.2102 23.2246 10.2084 21 10.2084C18.7753 10.2084 17.1949 10.2102 15.9959 10.3714ZM16.625 29.1667C16.625 28.6835 17.0167 28.2917 17.5 28.2917H24.5C24.9832 28.2917 25.375 28.6835 25.375 29.1667C25.375 29.65 24.9832 30.0417 24.5 30.0417H17.5C17.0167 30.0417 16.625 29.65 16.625 29.1667Z" fill="#01A274"/>
</svg>
