<svg width="28" height="29" viewBox="0 0 28 29" fill="none" xmlns="http://www.w3.org/2000/svg">
<path fill-rule="evenodd" clip-rule="evenodd" d="M16.6586 3.01095C16.2265 2.83334 15.6788 2.83334 14.5833 2.83334C13.4879 2.83334 12.9401 2.83334 12.5081 3.01095C11.932 3.24777 11.4743 3.70201 11.2357 4.27374C11.1267 4.53473 11.0841 4.83825 11.0674 5.28099C11.0429 5.93163 10.7067 6.53388 10.1385 6.85942C9.57037 7.18496 8.87674 7.1728 8.29673 6.86855C7.90204 6.66152 7.61587 6.5464 7.33365 6.50952C6.71544 6.42875 6.09021 6.59501 5.59552 6.97174C5.22449 7.25428 4.95062 7.72505 4.40289 8.66659C3.85515 9.60813 3.58128 10.0789 3.52024 10.5391C3.43885 11.1526 3.60638 11.7731 3.98597 12.2641C4.15923 12.4882 4.40274 12.6765 4.78065 12.9122C5.33623 13.2587 5.69371 13.8488 5.69367 14.5C5.69364 15.1512 5.33618 15.7413 4.78065 16.0877C4.40267 16.3234 4.15913 16.5118 3.98586 16.7359C3.60626 17.2268 3.43873 17.8473 3.52012 18.4609C3.58117 18.921 3.85503 19.3918 4.40277 20.3333C4.95051 21.2749 5.22438 21.7456 5.5954 22.0282C6.0901 22.4049 6.71532 22.5712 7.33354 22.4904C7.61574 22.4535 7.9019 22.3384 8.29655 22.1314C8.87661 21.8271 9.57028 21.815 10.1385 22.1405C10.7067 22.4661 11.0429 23.0684 11.0674 23.7191C11.0841 24.1618 11.1267 24.4653 11.2357 24.7263C11.4743 25.298 11.932 25.7522 12.5081 25.9891C12.9401 26.1667 13.4879 26.1667 14.5833 26.1667C15.6788 26.1667 16.2265 26.1667 16.6586 25.9891C17.2347 25.7522 17.6924 25.298 17.931 24.7263C18.04 24.4653 18.0826 24.1617 18.0993 23.719C18.1238 23.0684 18.46 22.4661 19.0281 22.1405C19.5963 21.8149 20.29 21.8271 20.87 22.1313C21.2647 22.3383 21.5508 22.4535 21.833 22.4903C22.4512 22.5711 23.0765 22.4048 23.5712 22.0281C23.9422 21.7456 24.216 21.2748 24.7638 20.3333C25.3115 19.3917 25.5854 18.9209 25.6464 18.4608C25.7278 17.8472 25.5603 17.2267 25.1807 16.7358C25.0074 16.5117 24.7639 16.3233 24.3859 16.0876C23.8304 15.7412 23.473 15.151 23.473 14.4999C23.473 13.8488 23.8305 13.2588 24.3859 12.9124C24.764 12.6767 25.0075 12.4883 25.1808 12.2641C25.5604 11.7732 25.7279 11.1527 25.6465 10.5391C25.5855 10.079 25.3116 9.60821 24.7639 8.66667C24.2162 7.72513 23.9423 7.25436 23.5713 6.97182C23.0766 6.59509 22.4513 6.42883 21.8331 6.5096C21.5509 6.54647 21.2648 6.66159 20.8701 6.8686C20.2901 7.17286 19.5964 7.18502 19.0282 6.85946C18.46 6.53389 18.1238 5.93161 18.0993 5.28093C18.0826 4.83823 18.0399 4.53472 17.931 4.27374C17.6924 3.70201 17.2347 3.24777 16.6586 3.01095ZM14.5833 18C16.531 18 18.11 16.433 18.11 14.5C18.11 12.567 16.531 11 14.5833 11C12.6356 11 11.0567 12.567 11.0567 14.5C11.0567 16.433 12.6356 18 14.5833 18Z" fill="white"/>
</svg>
