<svg width="42" height="42" viewBox="0 0 42 42" fill="none" xmlns="http://www.w3.org/2000/svg">
<rect width="42" height="42" rx="10" fill="#01A274" fill-opacity="0.1"/>
<path fill-rule="evenodd" clip-rule="evenodd" d="M21 12.5416C16.3286 12.5416 12.5417 16.3286 12.5417 21C12.5417 23.2222 13.3986 25.2443 14.8002 26.7538C17.0658 26.2308 19.8585 25.1688 22.7246 23.6418C25.4004 22.2163 27.6592 20.6416 29.2629 19.1841C28.4319 15.3853 25.048 12.5416 21 12.5416ZM29.4521 21.3278C27.8399 22.6418 25.8217 23.9746 23.5475 25.1863C21.0726 26.5049 18.6183 27.5074 16.4505 28.1318C17.7641 28.9715 19.3252 29.4583 21 29.4583C25.5616 29.4583 29.2798 25.8473 29.4521 21.3278ZM14.2453 28.6542C16.0452 30.2437 18.4099 31.2083 21 31.2083C26.6379 31.2083 31.2083 26.6379 31.2083 21C31.2083 20.598 31.1851 20.2016 31.1399 19.8118C31.175 19.7766 31.2097 19.7415 31.244 19.7064C32.1235 18.8088 32.8107 17.9091 33.1948 17.0602C33.5728 16.2248 33.7298 15.2585 33.2091 14.4263C32.7193 13.6435 31.8263 13.3048 30.9276 13.1841C30.0276 13.0632 28.941 13.1329 27.7547 13.3458C25.9548 11.7562 23.59 10.7916 21 10.7916C15.3621 10.7916 10.7917 15.3621 10.7917 21C10.7917 21.4019 10.8149 21.7984 10.8601 22.1882C9.97444 23.0767 9.2799 23.9628 8.87206 24.7976C8.44502 25.6716 8.2416 26.6957 8.79086 27.5736C9.29576 28.3806 10.2285 28.7163 11.162 28.8272C12.0414 28.9317 13.0945 28.8606 14.2453 28.6542ZM12.8045 27.0874C12.1732 26.2388 11.6705 25.2889 11.3254 24.2665C10.9252 24.7454 10.6316 25.1827 10.4444 25.5658C10.121 26.2278 10.2015 26.5289 10.2744 26.6454C10.3594 26.7812 10.6303 27.0017 11.3685 27.0894C11.7676 27.1368 12.249 27.1375 12.8045 27.0874ZM29.1955 14.9125C29.7821 14.8596 30.2848 14.8635 30.6947 14.9185C31.3882 15.0117 31.6436 15.2236 31.7255 15.3545C31.7947 15.4652 31.8719 15.7389 31.6004 16.3388C31.4184 16.741 31.1109 17.2112 30.6745 17.7335C30.3294 16.711 29.8268 15.7611 29.1955 14.9125Z" fill="#01A274"/>
</svg>
