<svg width="18" height="18" viewBox="0 0 18 18" fill="none" xmlns="http://www.w3.org/2000/svg">
<path d="M13.6933 2.63121C13.9035 2.71828 14.0405 2.92339 14.0405 3.1509V6.33288C14.0405 6.64354 13.7887 6.89538 13.478 6.89538H10.296C10.0685 6.89538 9.86342 6.75833 9.77635 6.54813C9.68929 6.33794 9.73742 6.096 9.89829 5.93513L11.1005 4.73288C9.12556 3.90684 6.76204 4.29817 5.15511 5.90511C3.03163 8.02858 3.03163 11.4714 5.15511 13.5949C7.27858 15.7184 10.7214 15.7184 12.8449 13.5949C14.0795 12.3602 14.5967 10.6801 14.3951 9.07027C14.3565 8.76202 14.5751 8.48084 14.8834 8.44225C15.1916 8.40365 15.4728 8.62225 15.5114 8.93051C15.7543 10.87 15.131 12.8998 13.6404 14.3904C11.0776 16.9532 6.92243 16.9532 4.35961 14.3904C1.7968 11.8276 1.7968 7.67243 4.35961 5.10961C6.41339 3.05583 9.48862 2.6484 11.9482 3.88521L13.0803 2.75315C13.2411 2.59227 13.4831 2.54415 13.6933 2.63121Z" fill="white"/>
</svg>
