<svg width="26" height="26" viewBox="0 0 26 26" fill="none" xmlns="http://www.w3.org/2000/svg">
<path fill-rule="evenodd" clip-rule="evenodd" d="M11.1684 2.43749H14.8316C15.066 2.43734 15.2703 2.43721 15.4631 2.46801C16.225 2.58967 16.8843 3.06488 17.2407 3.74921C17.3309 3.92243 17.3954 4.11622 17.4693 4.33866L17.5903 4.70147C17.6107 4.76288 17.6166 4.78026 17.6215 4.79395C17.8113 5.31841 18.3031 5.67295 18.8607 5.68708C18.8753 5.68745 18.8933 5.68751 18.9583 5.68751H22.2083C22.6571 5.68751 23.0208 6.05128 23.0208 6.50001C23.0208 6.94874 22.6571 7.31251 22.2083 7.31251H3.79156C3.34283 7.31251 2.97906 6.94874 2.97906 6.50001C2.97906 6.05128 3.34283 5.68751 3.79156 5.68751H7.04166C7.1067 5.68751 7.12466 5.68745 7.13932 5.68708C7.69686 5.67295 8.18871 5.31844 8.37842 4.79398C8.38341 4.78019 8.38915 4.76318 8.40972 4.70147L8.53063 4.33868C8.60461 4.11625 8.66908 3.92243 8.75928 3.74921C9.11564 3.06488 9.77496 2.58967 10.5369 2.46801C10.7297 2.43721 10.9339 2.43734 11.1684 2.43749ZM9.75873 5.68751C9.81453 5.57807 9.86398 5.46435 9.90652 5.34674C9.91944 5.31103 9.93211 5.27301 9.94839 5.22417L10.0565 4.8998C10.1553 4.6035 10.178 4.54307 10.2006 4.49974C10.3194 4.27163 10.5391 4.11323 10.7931 4.07268C10.8413 4.06497 10.9058 4.06251 11.2182 4.06251H14.7818C15.0941 4.06251 15.1586 4.06497 15.2069 4.07268C15.4608 4.11323 15.6806 4.27163 15.7994 4.49974C15.822 4.54307 15.8447 4.60349 15.9435 4.8998L16.0515 5.22397L16.0935 5.34676C16.136 5.46436 16.1854 5.57808 16.2412 5.68751H9.75873Z" fill="#01A275"/>
<path d="M6.40791 9.1543C6.37806 8.70656 5.9909 8.36779 5.54316 8.39764C5.09543 8.42749 4.75666 8.81465 4.78651 9.26239L5.28858 16.7934C5.3812 18.1831 5.45602 19.3056 5.63149 20.1864C5.81392 21.1021 6.12421 21.867 6.7651 22.4666C7.406 23.0662 8.18984 23.3249 9.11571 23.4461C10.0062 23.5625 11.1312 23.5625 12.5239 23.5625H13.476C14.8687 23.5625 15.9937 23.5625 16.8843 23.4461C17.8101 23.3249 18.594 23.0662 19.2349 22.4666C19.8758 21.867 20.1861 21.1021 20.3685 20.1864C20.544 19.3056 20.6188 18.1831 20.7114 16.7935L21.2135 9.26239C21.2433 8.81465 20.9045 8.42749 20.4568 8.39764C20.0091 8.36779 19.6219 8.70656 19.5921 9.1543L19.0938 16.6283C18.9965 18.0885 18.9271 19.1045 18.7748 19.8689C18.6271 20.6104 18.4209 21.0029 18.1247 21.28C17.8285 21.5571 17.4232 21.7367 16.6735 21.8348C15.9006 21.9359 14.8823 21.9375 13.4189 21.9375H12.5811C11.1177 21.9375 10.0993 21.9359 9.32648 21.8348C8.57681 21.7367 8.17147 21.5571 7.87528 21.28C7.57908 21.0029 7.37288 20.6104 7.22517 19.8689C7.07289 19.1045 7.00353 18.0885 6.90618 16.6283L6.40791 9.1543Z" fill="#01A275"/>
<path d="M10.2108 11.1082C10.6573 11.0636 11.0555 11.3893 11.1001 11.8358L11.6418 17.2525C11.6864 17.699 11.3607 18.0972 10.9142 18.1418C10.4677 18.1865 10.0695 17.8607 10.0249 17.4142L9.4832 11.9975C9.43855 11.551 9.76431 11.1529 10.2108 11.1082Z" fill="#01A275"/>
<path d="M15.7892 11.1082C16.2357 11.1529 16.5614 11.551 16.5168 11.9975L15.9751 17.4142C15.9305 17.8607 15.5323 18.1865 15.0858 18.1418C14.6393 18.0972 14.3135 17.699 14.3582 17.2525L14.8999 11.8358C14.9445 11.3893 15.3427 11.0636 15.7892 11.1082Z" fill="#01A275"/>
</svg>
