<svg width="29" height="28" viewBox="0 0 29 28" fill="none" xmlns="http://www.w3.org/2000/svg">
<path fill-rule="evenodd" clip-rule="evenodd" d="M17.716 3.05835C19.8494 0.924987 23.3082 0.924987 25.4416 3.05835C27.575 5.19171 27.575 8.65058 25.4416 10.7839L14.3754 21.8501C13.7432 22.4824 13.371 22.8546 12.9569 23.1776C12.4689 23.5582 11.9409 23.8845 11.3822 24.1508C10.9082 24.3767 10.4088 24.5432 9.56053 24.8259L5.67422 26.1213L4.73846 26.4332C3.97947 26.6862 3.14268 26.4887 2.57696 25.923C2.01124 25.3573 1.8137 24.5205 2.0667 23.7615L3.67404 18.9394C3.95678 18.0911 4.12322 17.5918 4.34912 17.1177C4.61539 16.559 4.94173 16.031 5.32238 15.543C5.64532 15.1289 6.01754 14.7568 6.64985 14.1245L17.716 3.05835ZM5.63385 24.2901L8.94895 23.1851C9.87192 22.8774 10.2641 22.7451 10.6293 22.571C11.0733 22.3595 11.4929 22.1001 11.8807 21.7977C12.1997 21.5488 12.4934 21.2573 13.1813 20.5693L22.0124 11.7383C21.0923 11.4137 19.907 10.8122 18.7974 9.70259C17.6877 8.59294 17.0862 7.40762 16.7617 6.48753L7.93062 15.3186C7.24268 16.0065 6.95111 16.3003 6.70227 16.6193C6.3998 17.0071 6.14048 17.4267 5.92889 17.8706C5.75483 18.2359 5.62252 18.628 5.31486 19.551L4.20983 22.8661L5.63385 24.2901ZM18.1812 5.06805C18.2211 5.27217 18.2885 5.54964 18.401 5.87402C18.6544 6.60429 19.133 7.56336 20.0348 8.46515C20.9366 9.36694 21.8956 9.84553 22.6259 10.0989C22.9503 10.2114 23.2278 10.2789 23.4319 10.3188L24.2041 9.54651C25.6541 8.09656 25.6541 5.74573 24.2041 4.29579C22.7542 2.84584 20.4034 2.84584 18.9534 4.29579L18.1812 5.06805Z" fill="white"/>
</svg>
