<svg width="36" height="36" viewBox="0 0 36 36" fill="none" xmlns="http://www.w3.org/2000/svg">
<path d="M17.6855 33.058C15.7902 33.058 14.0116 32.6987 12.3499 31.9801C10.6881 31.2704 9.2284 30.2868 7.97084 29.0293C6.71327 27.7717 5.72519 26.312 5.00658 24.6502C4.29695 22.9885 3.94214 21.2099 3.94214 19.3146C3.94214 17.6348 4.22509 16.0449 4.791 14.5448C5.3569 13.0447 6.14288 11.6928 7.14893 10.4892C8.16396 9.2855 9.34518 8.28394 10.6926 7.48449C12.0489 6.67605 13.5131 6.12362 15.0851 5.8272V3.9139C15.0851 3.59053 15.1479 3.348 15.2737 3.18631C15.4084 3.02462 15.5836 2.94827 15.7992 2.95725C16.0148 2.96623 16.2483 3.05606 16.4998 3.22673L20.7845 6.24489C21.0989 6.46945 21.2516 6.72546 21.2426 7.0129C21.2426 7.30034 21.0899 7.55186 20.7845 7.76744L16.4864 10.7856C16.2348 10.9563 16.0013 11.0461 15.7857 11.0551C15.5791 11.0551 15.4084 10.9742 15.2737 10.8125C15.1479 10.6509 15.0851 10.4128 15.0851 10.0984V8.15818C13.8185 8.45461 12.6463 8.94416 11.5684 9.62684C10.4994 10.3095 9.56525 11.1449 8.7658 12.133C7.96635 13.1121 7.34206 14.2125 6.89293 15.4341C6.45278 16.6557 6.2327 17.9492 6.2327 19.3146C6.2327 20.8955 6.52913 22.3776 7.12198 23.761C7.71483 25.1443 8.53674 26.3614 9.58771 27.4124C10.6387 28.4634 11.8558 29.2853 13.2391 29.8781C14.6225 30.471 16.1046 30.7674 17.6855 30.7674C19.2665 30.7674 20.7486 30.471 22.1319 29.8781C23.5152 29.2853 24.7324 28.4634 25.7833 27.4124C26.8343 26.3614 27.6562 25.1443 28.2491 23.761C28.8419 22.3776 29.1384 20.8955 29.1384 19.3146C29.1384 18.0301 28.9407 16.8129 28.5455 15.6632C28.1503 14.5134 27.5978 13.4624 26.8882 12.5103C26.1786 11.5491 25.3477 10.7272 24.3955 10.0445C24.1171 9.83793 23.9374 9.59091 23.8566 9.30346C23.7847 9.00704 23.8341 8.7151 24.0048 8.42766C24.1755 8.15818 24.427 7.992 24.7593 7.92913C25.0917 7.86625 25.4061 7.95158 25.7025 8.18513C26.8613 9.02051 27.8673 10.0131 28.7207 11.1629C29.583 12.3037 30.2477 13.5657 30.7148 14.949C31.1909 16.3234 31.4289 17.7786 31.4289 19.3146C31.4289 21.2099 31.0696 22.9885 30.351 24.6502C29.6414 26.312 28.6578 27.7717 27.4002 29.0293C26.1427 30.2868 24.683 31.2704 23.0212 31.9801C21.3594 32.6987 19.5809 33.058 17.6855 33.058ZM14.088 24.8524C13.8006 24.8524 13.5715 24.7625 13.4008 24.5829C13.2391 24.3942 13.1583 24.1517 13.1583 23.8553V16.2425H13.1313L11.7974 17.2396C11.7166 17.2935 11.6402 17.3384 11.5684 17.3743C11.4965 17.4013 11.4112 17.4148 11.3124 17.4148C11.1237 17.4148 10.9665 17.3519 10.8408 17.2261C10.715 17.0914 10.6521 16.9252 10.6521 16.7276C10.6521 16.4401 10.7914 16.1931 11.0698 15.9865L12.5924 14.8547C12.808 14.693 13.0191 14.5583 13.2257 14.4505C13.4412 14.3427 13.6838 14.2888 13.9533 14.2888C14.2856 14.2888 14.5461 14.3831 14.7347 14.5718C14.9324 14.7514 15.0312 15.0074 15.0312 15.3398V23.8553C15.0312 24.1427 14.9458 24.3808 14.7752 24.5694C14.6135 24.758 14.3844 24.8524 14.088 24.8524ZM20.8923 24.9332C20.012 24.9332 19.3069 24.6727 18.7769 24.1517C18.2559 23.6217 17.8787 22.948 17.6451 22.1306C17.4205 21.3042 17.3083 20.4464 17.3083 19.5571C17.3083 18.8924 17.3711 18.2457 17.4969 17.6169C17.6227 16.9791 17.8248 16.4042 18.1032 15.8922C18.3817 15.3712 18.75 14.958 19.2081 14.6526C19.6662 14.3472 20.2276 14.1945 20.8923 14.1945C21.7726 14.1945 22.4733 14.4595 22.9942 14.9895C23.5242 15.5104 23.9015 16.1797 24.1261 16.9971C24.3596 17.8145 24.4764 18.6678 24.4764 19.5571C24.4764 20.2218 24.4135 20.8731 24.2877 21.5108C24.162 22.1486 23.9599 22.728 23.6814 23.249C23.403 23.761 23.0347 24.1697 22.5766 24.4751C22.1184 24.7805 21.557 24.9332 20.8923 24.9332ZM20.8923 23.4106C21.2696 23.4106 21.584 23.2445 21.8355 22.9121C22.087 22.5708 22.2711 22.1082 22.3879 21.5243C22.5137 20.9404 22.5766 20.2847 22.5766 19.5571C22.5766 18.8295 22.5137 18.1783 22.3879 17.6034C22.2622 17.0285 22.0735 16.5749 21.822 16.2425C21.5795 15.9012 21.2696 15.7305 20.8923 15.7305C20.515 15.7305 20.2007 15.8967 19.9491 16.2291C19.7066 16.5614 19.5225 17.0195 19.3967 17.6034C19.271 18.1783 19.2081 18.8295 19.2081 19.5571C19.2081 20.2847 19.271 20.9404 19.3967 21.5243C19.5225 22.1082 19.7066 22.5708 19.9491 22.9121C20.2007 23.2445 20.515 23.4106 20.8923 23.4106Z" fill="white" fill-opacity="0.75"/>
</svg>
