<svg width="29" height="28" viewBox="0 0 29 28" fill="none" xmlns="http://www.w3.org/2000/svg">
<path fill-rule="evenodd" clip-rule="evenodd" d="M13.2675 1.45834H15.7325C17.8765 1.45833 19.5748 1.45831 20.9039 1.637C22.2717 1.8209 23.3788 2.20837 24.2519 3.08146C25.125 3.95455 25.5124 5.06166 25.6963 6.42948C25.875 7.75857 25.875 9.45681 25.875 11.6009V16.3992C25.875 18.5432 25.875 20.2415 25.6963 21.5705C25.5124 22.9384 25.125 24.0455 24.2519 24.9186C23.3788 25.7917 22.2717 26.1791 20.9039 26.363C19.5748 26.5417 17.8765 26.5417 15.7325 26.5417H13.2675C11.1235 26.5417 9.42523 26.5417 8.09614 26.363C6.72831 26.1791 5.62121 25.7917 4.74812 24.9186C3.87503 24.0455 3.48756 22.9384 3.30366 21.5705C3.12497 20.2415 3.12498 18.5432 3.125 16.3992V11.6009C3.12498 9.4568 3.12497 7.75857 3.30366 6.42948C3.48756 5.06166 3.87503 3.95455 4.74812 3.08146C5.62121 2.20837 6.72832 1.8209 8.09614 1.637C9.42522 1.45831 11.1235 1.45833 13.2675 1.45834ZM8.32932 3.3714C7.15555 3.52921 6.4793 3.82515 5.98555 4.3189C5.49181 4.81264 5.19586 5.4889 5.03805 6.66267C4.87686 7.86161 4.875 9.44205 4.875 11.6667V16.3333C4.875 18.558 4.87686 20.1384 5.03805 21.3374C5.19586 22.5111 5.49181 23.1874 5.98555 23.6811C6.4793 24.1749 7.15555 24.4708 8.32932 24.6286C9.52827 24.7898 11.1087 24.7917 13.3333 24.7917H15.6667C17.8913 24.7917 19.4717 24.7898 20.6707 24.6286C21.8444 24.4708 22.5207 24.1749 23.0144 23.6811C23.5082 23.1874 23.8041 22.5111 23.9619 21.3374C24.1231 20.1384 24.125 18.558 24.125 16.3333V11.6667C24.125 9.44205 24.1231 7.86161 23.9619 6.66267C23.8041 5.4889 23.5082 4.81264 23.0144 4.3189C22.5207 3.82515 21.8444 3.52921 20.6707 3.3714C19.4717 3.2102 17.8913 3.20834 15.6667 3.20834H13.3333C11.1087 3.20834 9.52827 3.2102 8.32932 3.3714ZM8.95833 9.33334C8.95833 8.8501 9.35009 8.45834 9.83333 8.45834H19.1667C19.6499 8.45834 20.0417 8.8501 20.0417 9.33334C20.0417 9.81659 19.6499 10.2083 19.1667 10.2083H9.83333C9.35009 10.2083 8.95833 9.81659 8.95833 9.33334ZM8.95833 14C8.95833 13.5168 9.35009 13.125 9.83333 13.125H19.1667C19.6499 13.125 20.0417 13.5168 20.0417 14C20.0417 14.4833 19.6499 14.875 19.1667 14.875H9.83333C9.35009 14.875 8.95833 14.4833 8.95833 14ZM8.95833 18.6667C8.95833 18.1834 9.35009 17.7917 9.83333 17.7917H15.6667C16.1499 17.7917 16.5417 18.1834 16.5417 18.6667C16.5417 19.1499 16.1499 19.5417 15.6667 19.5417H9.83333C9.35009 19.5417 8.95833 19.1499 8.95833 18.6667Z" fill="white"/>
</svg>
