<svg width="50" height="50" viewBox="0 0 50 50" fill="none" xmlns="http://www.w3.org/2000/svg">
<rect width="50" height="50" rx="12" fill="white" fill-opacity="0.2"/>
<rect x="0.5" y="0.5" width="49" height="49" rx="11.5" stroke="white" stroke-opacity="0.2"/>
<g clip-path="url(#clip0_34_575)">
<path fill-rule="evenodd" clip-rule="evenodd" d="M21.1495 12.4584C21.1654 12.4584 21.1816 12.4584 21.198 12.4584H28.8021C28.8186 12.4584 28.8347 12.4584 28.8507 12.4584C29.1072 12.4583 29.3039 12.4582 29.4758 12.4767C31.0556 12.6462 32.2648 13.9436 32.3382 15.5151C33.7881 15.948 34.803 17.3291 34.7322 18.8835C35.197 19.0932 35.6087 19.3825 35.9609 19.7848C36.68 20.6062 36.8996 21.6113 36.908 22.7841C36.9161 23.9177 36.7249 25.3518 36.4865 27.1393L36.003 30.766C35.8167 32.1635 35.6659 33.2945 35.4314 34.1802C35.1874 35.1021 34.8271 35.8665 34.1511 36.4584C33.4751 37.0503 32.6698 37.3064 31.7237 37.4264C30.8148 37.5417 29.6737 37.5417 28.2638 37.5417H21.7365C20.3266 37.5417 19.1855 37.5417 18.2766 37.4264C17.3305 37.3064 16.5252 37.0503 15.8492 36.4584C15.1732 35.8665 14.8129 35.1021 14.5689 34.1802C14.3344 33.2945 14.1836 32.1635 13.9973 30.766L13.5138 27.1393C13.2754 25.3518 13.0842 23.9177 13.0923 22.7841C13.1007 21.6113 13.3203 20.6062 14.0394 19.7848C14.3916 19.3825 14.8033 19.0932 15.2681 18.8835C15.1973 17.3291 16.2122 15.948 17.662 15.5151C17.7353 13.9436 18.9446 12.6462 20.5244 12.4767C20.6963 12.4582 20.893 12.4583 21.1495 12.4584ZM19.4377 15.375H30.5625C30.4382 14.7641 29.9309 14.2856 29.289 14.2167C29.2234 14.2096 29.1298 14.2084 28.8021 14.2084H21.198C20.8704 14.2084 20.7768 14.2096 20.7112 14.2167C20.0692 14.2856 19.562 14.7641 19.4377 15.375ZM17.0445 18.4287C18.1439 18.2917 19.5398 18.2917 21.26 18.2917H28.7403C30.4605 18.2917 31.8564 18.2917 32.9558 18.4287C32.8133 17.6975 32.1696 17.125 31.3724 17.125H18.6279C17.8307 17.125 17.187 17.6975 17.0445 18.4287ZM17.131 20.1825C16.1692 20.3177 15.6827 20.5645 15.3561 20.9375C15.0295 21.3106 14.8492 21.8254 14.8422 22.7966C14.8351 23.7927 15.008 25.1047 15.2575 26.9762L15.7242 30.4762C15.9201 31.9461 16.0579 32.9666 16.2606 33.7324C16.457 34.4744 16.6881 34.8669 17.002 35.1417C17.3158 35.4165 17.7355 35.5937 18.4969 35.6903C19.2828 35.7901 20.3125 35.7917 21.7954 35.7917H28.2049C29.6878 35.7917 30.7175 35.7901 31.5034 35.6903C32.2648 35.5937 32.6845 35.4165 32.9983 35.1417C33.3122 34.8669 33.5433 34.4744 33.7397 33.7324C33.9424 32.9666 34.0802 31.9461 34.2761 30.4762L34.7428 26.9762C34.9923 25.1047 35.1652 23.7927 35.1581 22.7966C35.1511 21.8254 34.9708 21.3106 34.6442 20.9375C34.3176 20.5645 33.8311 20.3177 32.8693 20.1825C31.8829 20.0437 30.5596 20.0417 28.6715 20.0417H21.3288C19.4407 20.0417 18.1174 20.0437 17.131 20.1825ZM25.6288 23.8093C25.6503 23.8207 25.6718 23.8322 25.6934 23.8437C26.028 24.0217 26.3583 24.2068 26.6553 24.3894C26.9937 24.5973 27.3547 24.8422 27.7107 25.0963C27.7297 25.1099 27.7487 25.1235 27.7677 25.137C28.3456 25.5494 28.8697 25.9233 29.2377 26.2984C29.6562 26.7248 29.9585 27.236 29.9585 27.9167C29.9585 28.5974 29.6562 29.1087 29.2377 29.5351C28.8697 29.9101 28.3456 30.2841 27.7677 30.6965C27.7487 30.71 27.7297 30.7235 27.7107 30.7371C27.3547 30.9913 26.9937 31.2362 26.6553 31.4441C26.3583 31.6266 26.028 31.8117 25.6934 31.9898C25.6718 32.0012 25.6503 32.0127 25.6288 32.0241C25.0594 32.3273 24.5286 32.6099 24.0671 32.7549C23.5309 32.9234 22.9373 32.9551 22.3643 32.5787C21.8159 32.2185 21.5816 31.6792 21.4612 31.1355C21.3509 30.6378 21.309 30.0025 21.2617 29.2862L21.2575 29.222C21.2279 28.7741 21.2085 28.3258 21.2085 27.9167C21.2085 27.5076 21.2279 27.0593 21.2575 26.6114L21.2617 26.5472C21.309 25.8309 21.3509 25.1957 21.4612 24.698C21.5816 24.1543 21.8159 23.615 22.3643 23.2548C22.9373 22.8784 23.5309 22.91 24.0671 23.0786C24.5286 23.2236 25.0593 23.5062 25.6288 23.8093ZM23.3427 24.7085C23.342 24.7081 23.3405 24.7073 23.325 24.7175C23.3244 24.7178 23.3238 24.7182 23.323 24.7187C23.3059 24.7291 23.2374 24.7708 23.1698 25.0764C23.092 25.4275 23.0566 25.9264 23.0037 26.7268C22.9756 27.1516 22.9585 27.5589 22.9585 27.9167C22.9585 28.2746 22.9756 28.6819 23.0037 29.1066C23.0566 29.9071 23.092 30.406 23.1698 30.7571C23.2374 31.0627 23.3059 31.1043 23.323 31.1147C23.3238 31.1152 23.3244 31.1156 23.325 31.116C23.343 31.1278 23.3421 31.1248 23.3431 31.1248C23.3571 31.1257 23.414 31.1258 23.5424 31.0854C23.8294 30.9952 24.2142 30.7945 24.8714 30.4448C25.1859 30.2775 25.4826 30.1107 25.7392 29.9531C26.0319 29.7732 26.3576 29.5529 26.694 29.3128C27.3477 28.8462 27.7417 28.561 27.9887 28.3094C28.1973 28.0968 28.2085 28.0015 28.2085 27.9167C28.2085 27.8319 28.1973 27.7366 27.9887 27.5241C27.7417 27.2724 27.3477 26.9873 26.694 26.5207C26.3576 26.2806 26.0319 26.0602 25.7392 25.8804C25.4826 25.7227 25.1859 25.556 24.8714 25.3886C24.2142 25.0389 23.8294 24.8382 23.5424 24.748C23.414 24.7077 23.3568 24.7076 23.3427 24.7085C23.3429 24.7086 23.3426 24.7085 23.3427 24.7085Z" fill="white"/>
</g>
<defs>
<clipPath id="clip0_34_575">
<rect width="28" height="28" fill="white" transform="translate(11 11)"/>
</clipPath>
</defs>
</svg>
