<svg width="42" height="42" viewBox="0 0 42 42" fill="none" xmlns="http://www.w3.org/2000/svg">
<rect width="42" height="42" rx="10" fill="#01A274" fill-opacity="0.1"/>
<path fill-rule="evenodd" clip-rule="evenodd" d="M20.174 10.8595C19.7146 11.4593 19.1961 12.3848 18.443 13.7359L18.0607 14.4217C18.0376 14.463 18.0149 14.504 17.9923 14.5445C17.6415 15.1759 17.3454 15.7088 16.8682 16.0711C16.3859 16.4372 15.7979 16.5694 15.1146 16.7229C15.0707 16.7328 15.0263 16.7427 14.9816 16.7529L14.2392 16.9208C12.7747 17.2522 11.7784 17.4802 11.096 17.7491C10.43 18.0116 10.2895 18.2266 10.2359 18.3989C10.1793 18.5807 10.1776 18.8589 10.5758 19.4913C10.9798 20.1332 11.6615 20.9338 12.6585 22.0996L13.1646 22.6915C13.194 22.7258 13.2232 22.7598 13.252 22.7935C13.7222 23.342 14.1142 23.7993 14.2941 24.3775C14.4728 24.9523 14.4136 25.5563 14.3417 26.2887C14.3373 26.3336 14.3329 26.379 14.3284 26.4249L14.2519 27.2146C14.1013 28.7688 13.9997 29.8389 14.0341 30.6098C14.0684 31.3792 14.2309 31.5919 14.3601 31.69C14.475 31.7773 14.6875 31.8738 15.3796 31.6755C16.0829 31.474 17.0177 31.0463 18.389 30.4149L19.0841 30.0949C19.1269 30.0752 19.1693 30.0556 19.2114 30.0361C19.847 29.7423 20.3984 29.4874 21 29.4874C21.6016 29.4874 22.1531 29.7423 22.7887 30.0361C22.8307 30.0556 22.8731 30.0752 22.9159 30.0949L23.611 30.4149C24.9823 31.0463 25.9171 31.474 26.6205 31.6755C27.3126 31.8738 27.525 31.7773 27.6399 31.69C27.7692 31.5919 27.9317 31.3792 27.966 30.6098C28.0003 29.8389 27.8987 28.7688 27.7481 27.2146L27.6716 26.4249C27.6672 26.379 27.6627 26.3336 27.6583 26.2887C27.5865 25.5563 27.5272 24.9523 27.706 24.3775C27.8858 23.7993 28.2779 23.342 28.748 22.7935C28.7769 22.7598 28.806 22.7258 28.8354 22.6914L29.3416 22.0996C30.3385 20.9338 31.0202 20.1332 31.4243 19.4913C31.8224 18.8589 31.8207 18.5807 31.7642 18.3989C31.7106 18.2266 31.57 18.0116 30.9041 17.7491C30.2217 17.4802 29.2253 17.2522 27.7608 16.9208L27.0184 16.7529C26.9737 16.7427 26.9294 16.7328 26.8855 16.7229C26.2021 16.5694 25.6142 16.4372 25.1319 16.0711C24.6547 15.7088 24.3586 15.1759 24.0077 14.5445C23.9852 14.504 23.9624 14.463 23.9394 14.4217L23.5571 13.7358C22.8039 12.3848 22.2854 11.4593 21.8261 10.8595C21.3671 10.2602 21.1327 10.2084 21 10.2084C20.8673 10.2084 20.6329 10.2602 20.174 10.8595ZM18.7846 9.79549C19.3407 9.06928 20.0281 8.45837 21 8.45837C21.972 8.45837 22.6593 9.06928 23.2155 9.79549C23.7619 10.5091 24.3414 11.5486 25.0496 12.8191L25.4679 13.5696C25.9259 14.3911 26.043 14.5657 26.19 14.6772C26.3314 14.7846 26.5139 14.8445 27.4046 15.046L28.2213 15.2308C29.5928 15.5411 30.7228 15.7967 31.5457 16.121C32.3999 16.4576 33.1474 16.9538 33.4352 17.8792C33.72 18.7951 33.4 19.6378 32.9053 20.4236C32.4246 21.1871 31.6569 22.0849 30.719 23.1815L30.1654 23.8288C29.5623 24.5341 29.4363 24.7067 29.377 24.8972C29.3167 25.0914 29.3223 25.3158 29.4135 26.2561L29.4969 27.1173C29.6389 28.5826 29.7548 29.7776 29.7142 30.6877C29.673 31.614 29.4626 32.5035 28.6981 33.0839C27.9193 33.6751 27.0132 33.6085 26.1384 33.3578C25.2903 33.1148 24.2329 32.6279 22.9489 32.0367L22.184 31.6845C21.3471 31.2991 21.1679 31.2374 21 31.2374C20.8321 31.2374 20.6529 31.2991 19.816 31.6845L19.0511 32.0367C17.7671 32.6279 16.7098 33.1148 15.8616 33.3578C14.9868 33.6085 14.0807 33.6751 13.302 33.0839C12.5375 32.5035 12.3271 31.614 12.2858 30.6877C12.2453 29.7776 12.3611 28.5826 12.5031 27.1173L12.5866 26.2561C12.6777 25.3158 12.6834 25.0914 12.623 24.8972C12.5638 24.7067 12.4378 24.5341 11.8346 23.8288L11.281 23.1815C10.3432 22.0849 9.57545 21.1872 9.09478 20.4236C8.60008 19.6378 8.27999 18.7951 8.56481 17.8792C8.85259 16.9538 9.60011 16.4576 10.4543 16.121C11.2773 15.7967 12.4072 15.5411 13.7788 15.2308L13.853 15.214L14.5955 15.046C15.4861 14.8445 15.6686 14.7846 15.8101 14.6772C15.957 14.5657 16.0742 14.3911 16.5321 13.5696L16.9505 12.8191C17.6587 11.5486 18.2381 10.5091 18.7846 9.79549Z" fill="#01A274"/>
</svg>
