<svg width="133" height="133" viewBox="0 0 133 133" fill="none" xmlns="http://www.w3.org/2000/svg">
<rect width="133" height="133" rx="31.92" fill="#01A274"/>
<rect x="1.33" y="1.33" width="130.34" height="130.34" rx="30.59" stroke="white" stroke-opacity="0.2" stroke-width="2.66"/>
<g clip-path="url(#clip0_119_706)">
<path d="M57.19 54.8625C55.9046 54.8625 54.8625 55.9046 54.8625 57.19C54.8625 58.4754 55.9046 59.5175 57.19 59.5175H64.1725L64.1725 75.81C64.1725 77.0954 65.2146 78.1375 66.5 78.1375C67.7854 78.1375 68.8275 77.0954 68.8275 75.81L68.8275 59.5175H75.81C77.0954 59.5175 78.1375 58.4754 78.1375 57.19C78.1375 55.9046 77.0954 54.8625 75.81 54.8625H57.19Z" fill="white"/>
<path fill-rule="evenodd" clip-rule="evenodd" d="M39.3458 49.8862C35.7638 48.8731 33.1392 45.5797 33.1392 41.6733C33.1392 36.96 36.96 33.1392 41.6733 33.1392C45.5797 33.1392 48.8731 35.7638 49.8862 39.3458H83.1137C84.1269 35.7638 87.4203 33.1392 91.3267 33.1392C96.04 33.1392 99.8608 36.96 99.8608 41.6733C99.8608 45.5797 97.2362 48.8731 93.6542 49.8862V83.1137C97.2362 84.1269 99.8608 87.4203 99.8608 91.3267C99.8608 96.04 96.04 99.8608 91.3267 99.8608C87.4203 99.8608 84.1269 97.2362 83.1137 93.6542H49.8862C48.8731 97.2362 45.5797 99.8608 41.6733 99.8608C36.96 99.8608 33.1392 96.04 33.1392 91.3267C33.1392 87.4203 35.7638 84.1269 39.3458 83.1137L39.3458 49.8862ZM41.6733 37.7942C39.5309 37.7942 37.7942 39.5309 37.7942 41.6733C37.7942 43.8157 39.5309 45.5525 41.6733 45.5525C43.8157 45.5525 45.5525 43.8157 45.5525 41.6733C45.5525 39.5309 43.8157 37.7942 41.6733 37.7942ZM44.0008 83.1137L44.0008 49.8862C46.843 49.0824 49.0824 46.843 49.8862 44.0008H83.1137C83.9176 46.843 86.157 49.0824 88.9992 49.8862V83.1137C86.157 83.9176 83.9176 86.157 83.1137 88.9992H49.8862C49.0824 86.157 46.843 83.9176 44.0008 83.1137ZM41.6733 87.4475C39.5309 87.4475 37.7942 89.1843 37.7942 91.3267C37.7942 93.4691 39.5309 95.2058 41.6733 95.2058C43.8157 95.2058 45.5525 93.4691 45.5525 91.3267C45.5525 89.1843 43.8157 87.4475 41.6733 87.4475ZM95.2058 41.6733C95.2058 43.8157 93.4691 45.5525 91.3267 45.5525C89.1843 45.5525 87.4475 43.8157 87.4475 41.6733C87.4475 39.5309 89.1843 37.7942 91.3267 37.7942C93.4691 37.7942 95.2058 39.5309 95.2058 41.6733ZM87.4475 91.3267C87.4475 89.1843 89.1843 87.4475 91.3267 87.4475C93.4691 87.4475 95.2058 89.1843 95.2058 91.3267C95.2058 93.4691 93.4691 95.2058 91.3267 95.2058C89.1843 95.2058 87.4475 93.4691 87.4475 91.3267Z" fill="white"/>
</g>
<defs>
<clipPath id="clip0_119_706">
<rect width="74.48" height="74.48" fill="white" transform="translate(29.26 29.26)"/>
</clipPath>
</defs>
</svg>
