<svg width="50" height="50" viewBox="0 0 50 50" fill="none" xmlns="http://www.w3.org/2000/svg">
<rect width="50" height="50" rx="12" fill="white" fill-opacity="0.2"/>
<rect x="0.5" y="0.5" width="49" height="49" rx="11.5" stroke="white" stroke-opacity="0.2"/>
<g clip-path="url(#clip0_34_586)">
<path d="M22.6106 18.2917C22.1091 18.2916 21.6402 18.2915 21.2572 18.3487C20.8244 18.4134 20.3799 18.5662 20.0246 18.961C19.6811 19.3426 19.5599 19.7974 19.5073 20.2318C19.4582 20.6378 19.4582 21.1411 19.4583 21.7095L19.4583 22.375C19.4583 22.8583 19.85 23.25 20.3333 23.25C20.8165 23.25 21.2083 22.8583 21.2083 22.375V21.7593C21.2083 21.1259 21.2098 20.7301 21.2446 20.442C21.261 20.3068 21.2814 20.2289 21.298 20.1843C21.3119 20.1466 21.3219 20.1355 21.3252 20.1319L21.3261 20.1308C21.3277 20.1289 21.3289 20.1275 21.3394 20.1226C21.3588 20.1138 21.4085 20.0955 21.5157 20.0795C21.7538 20.044 22.0892 20.0417 22.6666 20.0417H24.1249V29.9583H22.0833C21.6 29.9583 21.2083 30.3501 21.2083 30.8333C21.2083 31.3166 21.6 31.7083 22.0833 31.7083H28.4999C28.9832 31.7083 29.3749 31.3166 29.3749 30.8333C29.3749 30.3501 28.9832 29.9583 28.4999 29.9583H25.8749V20.0417H27.3333C27.9106 20.0417 28.246 20.044 28.4841 20.0795C28.5913 20.0955 28.641 20.1138 28.6604 20.1226C28.6709 20.1275 28.6721 20.1289 28.6737 20.1308L28.6745 20.1317C28.6778 20.1354 28.6879 20.1466 28.7019 20.1843C28.7184 20.2289 28.7388 20.3068 28.7552 20.442C28.7901 20.7301 28.7916 21.1259 28.7916 21.7593V22.375C28.7916 22.8583 29.1833 23.25 29.6666 23.25C30.1498 23.25 30.5416 22.8583 30.5416 22.375L30.5416 21.7095C30.5416 21.1411 30.5417 20.6378 30.4925 20.2318C30.44 19.7974 30.3187 19.3426 29.9753 18.961C29.6199 18.5662 29.1754 18.4134 28.7427 18.3487C28.3596 18.2915 27.8908 18.2916 27.3893 18.2917H22.6106Z" fill="white"/>
<path fill-rule="evenodd" clip-rule="evenodd" d="M24.933 12.4583C22.2399 12.4583 20.1293 12.4583 18.4826 12.6797C16.797 12.9063 15.467 13.3792 14.4231 14.4232C13.3791 15.4671 12.9062 16.7971 12.6796 18.4827C12.4582 20.1294 12.4582 22.2399 12.4583 24.9331V25.067C12.4582 27.7601 12.4582 29.8706 12.6796 31.5174C12.9062 33.2029 13.3791 34.5329 14.4231 35.5769C15.467 36.6208 16.797 37.0937 18.4826 37.3203C20.1293 37.5417 22.2399 37.5417 24.933 37.5417H25.0669C27.76 37.5417 29.8705 37.5417 31.5173 37.3203C33.2028 37.0937 34.5328 36.6208 35.5768 35.5769C36.6207 34.5329 37.0936 33.2029 37.3202 31.5174C37.5416 29.8706 37.5416 27.7601 37.5416 25.0669V24.9331C37.5416 22.2399 37.5416 20.1294 37.3202 18.4827C37.0936 16.7971 36.6207 15.4671 35.5768 14.4232C34.5328 13.3792 33.2028 12.9063 31.5173 12.6797C29.8705 12.4583 27.76 12.4583 25.0669 12.4583H24.933ZM15.6605 15.6606C16.3251 14.996 17.2243 14.6146 18.7158 14.4141C20.2324 14.2102 22.2253 14.2083 24.9999 14.2083C27.7745 14.2083 29.7674 14.2102 31.2841 14.4141C32.7756 14.6146 33.6747 14.996 34.3393 15.6606C35.0039 16.3252 35.3853 17.2244 35.5858 18.7159C35.7897 20.2325 35.7916 22.2254 35.7916 25C35.7916 27.7746 35.7897 29.7675 35.5858 31.2842C35.3853 32.7756 35.0039 33.6748 34.3393 34.3394C33.6747 35.004 32.7756 35.3854 31.2841 35.5859C29.7674 35.7898 27.7745 35.7917 24.9999 35.7917C22.2253 35.7917 20.2324 35.7898 18.7158 35.5859C17.2243 35.3854 16.3251 35.004 15.6605 34.3394C14.9959 33.6748 14.6145 32.7756 14.414 31.2842C14.2101 29.7675 14.2083 27.7746 14.2083 25C14.2083 22.2254 14.2101 20.2325 14.414 18.7159C14.6145 17.2244 14.9959 16.3252 15.6605 15.6606Z" fill="white"/>
</g>
<defs>
<clipPath id="clip0_34_586">
<rect width="28" height="28" fill="white" transform="translate(11 11)"/>
</clipPath>
</defs>
</svg>
