<svg width="35" height="36" viewBox="0 0 35 36" fill="none" xmlns="http://www.w3.org/2000/svg">
<rect width="35" height="36" rx="17.5" fill="white" fill-opacity="0.2"/>
<rect x="0.5" y="0.5" width="34" height="35" rx="17" stroke="white" stroke-opacity="0.2"/>
<path d="M22.1289 17.0312C21.9492 17.0312 21.7988 16.9707 21.6777 16.8496C21.5566 16.7285 21.4961 16.5762 21.4961 16.3926V15.9766L21.6191 14.1367L20.248 15.5723L18.5664 17.2773C18.4492 17.3984 18.2988 17.459 18.1152 17.459C17.9199 17.459 17.7578 17.3984 17.6289 17.2773C17.5 17.1562 17.4355 16.998 17.4355 16.8027C17.4355 16.7129 17.4512 16.6289 17.4824 16.5508C17.5176 16.4688 17.5684 16.3965 17.6348 16.334L19.3223 14.6465L20.7695 13.2812L18.918 13.4043H18.4668C18.2832 13.4043 18.1289 13.3457 18.0039 13.2285C17.8828 13.1074 17.8223 12.9531 17.8223 12.7656C17.8223 12.582 17.8828 12.4297 18.0039 12.3086C18.1289 12.1875 18.2832 12.127 18.4668 12.127H21.7129C22.0488 12.127 22.3086 12.2207 22.4922 12.4082C22.6797 12.5918 22.7734 12.8496 22.7734 13.1816V16.3926C22.7734 16.5723 22.7109 16.7246 22.5859 16.8496C22.4648 16.9707 22.3125 17.0312 22.1289 17.0312ZM15.8008 23.418H12.5547C12.2188 23.418 11.957 23.3242 11.7695 23.1367C11.5859 22.9531 11.4941 22.6934 11.4941 22.3574V19.1523C11.4941 18.9688 11.5547 18.8164 11.6758 18.6953C11.7969 18.5742 11.9492 18.5137 12.1328 18.5137C12.3203 18.5137 12.4727 18.5742 12.5898 18.6953C12.7109 18.8164 12.7715 18.9688 12.7715 19.1523V19.5684L12.6484 21.4082L14.0137 19.9668L15.7012 18.2676C15.8223 18.1465 15.9707 18.0859 16.1465 18.0859C16.3457 18.0859 16.5078 18.1465 16.6328 18.2676C16.7617 18.3887 16.8262 18.5469 16.8262 18.7422C16.8262 18.832 16.8086 18.918 16.7734 19C16.7422 19.0781 16.6973 19.1484 16.6387 19.2109L14.9395 20.8984L13.5039 22.2637L15.3496 22.1406H15.8008C15.9844 22.1406 16.1367 22.2012 16.2578 22.3223C16.3789 22.4434 16.4395 22.5957 16.4395 22.7793C16.4395 22.9629 16.3789 23.1152 16.2578 23.2363C16.1406 23.3574 15.9883 23.418 15.8008 23.418Z" fill="white"/>
</svg>
